PathFileType	4	(X/Y/Z)	C:\Users\dbl\Desktop\20210112\20210112\bx_n_5_901.trc
DataRate	CameraRate	NumFrames	NumMarkers	Units	OrigDataRate	OrigDataStartFrame	OrigNumFrames
50.00	50.00	       4	43	mm	50.00	412	       470
Frame#	Time	Top.Head			R.Acromium			L.Acromium			Sternum			R.ASIS			L.ASIS			V.Sacral			R.Thigh.Upper			R.Thigh.Front			R.Thigh.Rear			R.Knee.Lat			R.Knee.Med			R.Shank.Upper			R.Shank.Front			R.Shank.Rear			R.Ankle.Lat			R.Midfoot.Lat			R.Toe.Lat			R.Toe.Tip			R.Toe.Med			R.Ankle.Med			R.Midfoot.Sup			R.Heel			L.Thigh.Upper			L.Thigh.Front			L.Thigh.Rear			L.Knee.Lat			L.Knee.Med			L.Shank.Upper			L.Shank.Front			L.Shank.Rear			L.Ankle.Lat			L.Midfoot.Lat			L.Toe.Lat			L.Toe.Tip			L.Toe.Med			L.Ankle.Med			L.Midfoot.Sup			L.Heel			origin1 front left			origin2 front right			origin 3 back right			origin 4 back leftt			
		X1	Y1	Z1	X2	Y2	Z2	X3	Y3	Z3	X4	Y4	Z4	X5	Y5	Z5	X6	Y6	Z6	X7	Y7	Z7	X8	Y8	Z8	X9	Y9	Z9	X10	Y10	Z10	X11	Y11	Z11	X12	Y12	Z12	X13	Y13	Z13	X14	Y14	Z14	X15	Y15	Z15	X16	Y16	Z16	X17	Y17	Z17	X18	Y18	Z18	X19	Y19	Z19	X20	Y20	Z20	X21	Y21	Z21	X22	Y22	Z22	X23	Y23	Z23	X24	Y24	Z24	X25	Y25	Z25	X26	Y26	Z26	X27	Y27	Z27	X28	Y28	Z28	X29	Y29	Z29	X30	Y30	Z30	X31	Y31	Z31	X32	Y32	Z32	X33	Y33	Z33	X34	Y34	Z34	X35	Y35	Z35	X36	Y36	Z36	X37	Y37	Z37	X38	Y38	Z38	X39	Y39	Z39	X40	Y40	Z40	X41	Y41	Z41	X42	Y42	Z42	X43	Y43	Z43	

412	8.220	-670.51215	93.42268	1850.46838	-652.31018	-78.39248	1537.39075	-660.06427	281.85904	1542.42310	-588.37152	100.57449	1350.99292	-634.11230	-5.68251	1052.22888	-652.43604	239.30946	1068.27759	-841.10181	86.38383	1067.53149	-700.32208	-74.28459	876.88458	-623.80371	-6.43984	808.68530	-716.68744	-62.92635	760.37683	-729.24146	-39.96607	618.75769	-716.03448	69.37322	574.02667	-734.04102	-37.93074	570.02667	-683.75024	12.27366	523.29987	-772.36139	-51.24297	487.06735	-759.31732	-24.20326	206.23270	-648.03699	-67.79176	161.98193	-605.42792	-72.88248	157.99086	-549.31232	-24.02475	163.59027	-600.40735	27.55250	168.99310	-720.96265	66.33877	218.49126	-675.20020	51.95514	161.69725	-794.66064	34.44324	173.41379	-738.23724	281.78781	878.35681	-635.26318	228.10672	797.00964	-739.34943	271.42542	746.04669	-762.46790	253.73793	642.87079	-721.39813	147.92549	575.59930	-760.08655	251.17975	576.08459	-703.27917	209.71944	537.92999	-794.06458	261.68234	499.81223	-770.18860	231.18648	203.84192	-659.58234	297.70682	157.47690	-623.52539	306.41599	158.62514	-556.69067	253.77744	164.78339	-593.16510	218.99956	174.68718	-714.56030	157.58273	220.05244	-676.05743	174.74207	161.82610	-796.93536	182.05646	182.99942	-528.12616	303.97577	146.45146	-517.96021	-72.86752	143.61810	-875.58209	-78.62048	141.06126	-882.51617	296.18082	144.70651	
413	8.240	-678.10858	93.15535	1851.38354	-657.16437	-78.39783	1538.43689	-665.44238	281.95572	1543.44568	-589.85754	100.80900	1352.52954	-631.65277	-5.20583	1052.46545	-650.45758	239.58336	1068.41968	-838.88965	86.33391	1067.03186	-697.29266	-74.15079	876.76410	-621.20001	-5.78761	808.62500	-713.86621	-62.68816	760.34723	-727.01605	-39.78373	618.74744	-714.28107	69.61782	574.04626	-731.97998	-37.79721	570.05035	-682.10394	12.63333	523.02863	-770.65497	-51.19680	487.23276	-759.15326	-24.16998	206.31943	-647.97766	-67.67927	162.10678	-605.44275	-72.81110	158.02243	-549.18921	-23.98588	163.65025	-600.32990	27.64811	168.92651	-720.71747	66.60992	218.51797	-675.21814	51.99972	161.55727	-794.65363	34.45624	173.44377	-736.16553	281.99927	878.26788	-633.27344	228.34744	796.89069	-737.65039	271.53815	746.03394	-761.06189	253.76547	642.94257	-719.92157	147.93341	575.60486	-758.86694	251.15341	576.12915	-702.14081	209.79498	537.82507	-793.05756	261.61295	499.93585	-770.08636	231.03448	203.84674	-659.58942	297.69769	157.47813	-623.51202	306.41870	158.62431	-556.61432	253.84253	164.74289	-593.12592	218.94612	174.68602	-714.49329	157.52098	220.01166	-676.04840	174.61568	161.74129	-796.79742	182.02895	183.00240	-528.13562	303.96347	146.44458	-517.93951	-72.88340	143.64276	-875.58630	-78.65412	141.10248	-882.50378	296.19113	144.71732	
414	8.260	-685.23834	92.86910	1852.12793	-661.71869	-78.42019	1539.30762	-670.46558	282.00610	1544.29370	-591.16467	101.02052	1353.86121	-629.19843	-4.71156	1052.64417	-648.62476	239.89102	1068.51855	-836.77374	86.25436	1066.61523	-694.40161	-73.98557	876.63947	-618.75586	-5.10383	808.55548	-711.18170	-62.45888	760.31439	-724.96790	-39.56488	618.71851	-712.67828	69.86237	574.05737	-730.04321	-37.67200	570.06903	-680.58673	12.98823	522.76837	-769.06805	-51.15899	487.37662	-759.00305	-24.13883	206.39856	-647.92773	-67.57001	162.20659	-605.46033	-72.72000	158.05305	-549.07947	-23.95396	163.70946	-600.24518	27.72293	168.88297	-720.50226	66.85820	218.53896	-675.24438	52.03584	161.43123	-794.64667	34.46351	173.45493	-734.34692	282.18985	878.17352	-631.51727	228.64476	796.77679	-736.13525	271.66495	746.01666	-759.81079	253.79422	642.99884	-718.66034	147.94693	575.58295	-757.78107	251.14597	576.14691	-701.11841	209.90495	537.72968	-792.16510	261.57086	500.05594	-769.99323	230.91219	203.85693	-659.60358	297.70145	157.47015	-623.49713	306.42923	158.62280	-556.55463	253.91052	164.70505	-593.10004	218.90727	174.70746	-714.44562	157.49876	219.97058	-676.04468	174.50505	161.65761	-796.70123	181.99202	182.99689	-528.14288	303.95929	146.45122	-517.92297	-72.89889	143.66689	-875.62201	-78.68565	141.15424	-882.50165	296.19821	144.72672	
415	8.280	-691.90698	92.55106	1852.72778	-665.98547	-78.45850	1540.03662	-675.16559	282.01910	1544.98657	-592.37018	101.21297	1355.02344	-626.75189	-4.23624	1052.78125	-646.91797	240.21605	1068.58911	-834.73047	86.13372	1066.27734	-691.64532	-73.80407	876.51782	-616.48108	-4.41267	808.45197	-708.66962	-62.25364	760.27161	-723.14563	-39.31380	618.66577	-711.25171	70.08928	574.05457	-728.26605	-37.56388	570.07928	-679.21838	13.31420	522.53217	-767.63757	-51.13586	487.49863	-758.86884	-24.10328	206.46326	-647.88959	-67.47149	162.27728	-605.47888	-72.61314	158.08977	-548.99677	-23.93138	163.76422	-600.16412	27.77571	168.86476	-720.33820	67.06493	218.54208	-675.27460	52.06375	161.32872	-794.64276	34.46694	173.45392	-732.74078	282.37250	878.09595	-629.97144	228.98584	796.66412	-734.78662	271.79333	746.00531	-758.69556	253.81775	643.03601	-717.61566	147.95976	575.54028	-756.80933	251.15623	576.15118	-700.19843	210.03654	537.64423	-791.37823	261.54309	500.17902	-769.90570	230.82661	203.87488	-659.61987	297.71808	157.45714	-623.48578	306.44650	158.62102	-556.51563	253.97830	164.67093	-593.08124	218.88814	174.74800	-714.40137	157.50113	219.92369	-676.04102	174.42146	161.58354	-796.66571	181.93405	182.99030	-528.14404	303.96207	146.46504	-517.90961	-72.91537	143.68472	-875.68121	-78.71004	141.20544	-882.50873	296.19995	144.73238	
